<svg width="51" height="106" viewBox="0 0 51 106" fill="none" xmlns="http://www.w3.org/2000/svg">
<path d="M29.4062 27.1625C35.474 27.1625 40.1875 28.725 43.5469 31.85C46.9323 34.975 48.625 39.0896 48.625 44.1938C48.625 49.35 46.9323 53.4776 43.5469 56.5766C40.1875 59.6756 35.474 61.225 29.4062 61.225H17.3359V78.0219L23.7031 79.1157V84.0375H3.27344V79.1157L9.64062 78.0219V33.2172L3.27344 32.1235V27.1625H9.64062H29.4062ZM17.3359 55.2094H29.4062C33.2604 55.2094 36.138 54.1808 38.0391 52.1235C39.9661 50.0401 40.9297 47.423 40.9297 44.2719C40.9297 41.1209 39.9661 38.4907 38.0391 36.3813C36.138 34.2719 33.2604 33.2172 29.4062 33.2172H17.3359V55.2094Z" fill="white"/>
<rect x="3.5" y="65.6233" width="42" height="4.47176" fill="white"/>
</svg>
